{"title":"Kill.Em.All.2013.DVDRip.XviD.AC3-PTpOWeR","uid":7921566,"size":1293164341,"categoryP":"video","categoryS":"movies","magnet":"?xt=urn:btih:b04e4e7cb0b03dba67db5c72e16fa250a028e5aa&amp;dn=Kill.Em.All.2013.DVDRip.XviD.AC3-PTpOWeR&amp;tr=udp%3A%2F%2Ftracker.openbittorrent.com%3A80&amp;tr=udp%3A%2F%2Fopen.demonii.com%3A1337&amp;tr=udp%3A%2F%2Ftracker.coppersurfer.tk%3A6969&amp;tr=udp%3A%2F%2Fexodus.desync.com%3A6969","seeders":0,"leechers":1,"uploader":"xxxlavalxxx","files":3,"time":1355446197,"description":" &lt;a href=&quot;http://www.shotpix.com/images/51784210497017171653.png&quot; rel=&quot;nofollow&quot; target=&quot;_NEW&quot;&gt;http://www.shotpix.com/images/51784210497017171653.png&lt;/a&gt;\n\n &lt;a href=&quot;\nhttp://www.imdb.com/title/tt1928335/&quot; rel=&quot;nofollow&quot; target=&quot;_NEW&quot;&gt;\nhttp://www.imdb.com/title/tt1928335/&lt;/a&gt;\n\n\n\n\nPlot:Captured international assassins are locked up inside a high-tech bunker known as the Killing Chamber... See full summary Â»\n \n\n\nDirector: \nRaimund Huber\n\n Writer: \nKen Miller\n \nStars:\n Johnny Messner, Chia Hui Liu and Joe Lewis\n\nCountry:\nUSA \n\nLanguage:\nEnglish\n\nGenres:\n Action \n\nFormat                                   : AVI\nFormat/Info                              : Audio Video Interleave\nFile size                                : 1.20 GiB\nDuration                                 : 1h 26mn\nOverall bit rate                         : 1 998 Kbps\n\nVideo\nID                                       : 0\nFormat                                   : MPEG-4 Visual\nFormat profile                           : Simple@L3\nFormat settings, BVOP                    : No\nFormat settings, QPel                    : No\nFormat settings, GMC                     : No warppoints\nFormat settings, Matrix                  : Default (H.263)\nCodec ID                                 : XVID\nCodec ID/Hint                            : XviD\nDuration                                 : 1h 26mn\nSource duration                          : 1h 26mn\nBit rate                                 : 1 603 Kbps\nWidth                                    : 720 pixels\nHeight                                   : 400 pixels\nDisplay aspect ratio                     : 16:9\nFrame rate                               : 23.976 fps\nColor space                              : YUV\nChroma subsampling                       : 4:2:0\nBit depth                                : 8 bits\nScan type                                : Progressive\nCompression mode                         : Lossy\nBits/(Pixel*Frame)                       : 0.232\nStream size                              : 989 MiB (80%)\nWriting library                          : XviD 1.1.2 (UTC 2006-11-01)\n\nAudio\nID                                       : 1\nFormat                                   : AC-3\nFormat/Info                              : Audio Coding 3\nMode extension                           : CM (complete main)\nFormat settings, Endianness              : Big\nCodec ID                                 : 2000\nDuration                                 : 1h 26mn\nBit rate mode                            : Constant\nBit rate                                 : 384 Kbps\nChannel(s)                               : 6 channels\nChannel positions                        : Front: L C R, Side: L R, LFE\nSampling rate                            : 48.0 KHz\nBit depth                                : 16 bits\nCompression mode                         : Lossy\nStream size                              : 237 MiB (19%)\nAlignment                                : Aligned on interleaves\nInterleave, duration                     : 32 ms (0.77 video frame)\n\n\n\n\n\n\n &lt;a href=&quot;\nhttp://www.shotpix.com/images/98745910132102410299.jpg&quot; rel=&quot;nofollow&quot; target=&quot;_NEW&quot;&gt;\nhttp://www.shotpix.com/images/98745910132102410299.jpg&lt;/a&gt; &lt;a href=&quot;\nhttp://www.shotpix.com/images/89053020111292315148.jpg&quot; rel=&quot;nofollow&quot; target=&quot;_NEW&quot;&gt;\nhttp://www.shotpix.com/images/89053020111292315148.jpg&lt;/a&gt; &lt;a href=&quot;\nhttp://www.shotpix.com/images/22718683085831256546.jpg&quot; rel=&quot;nofollow&quot; target=&quot;_NEW&quot;&gt;\nhttp://www.shotpix.com/images/22718683085831256546.jpg&lt;/a&gt; &lt;a href=&quot;\nhttp://www.shotpix.com/images/76104868875018126299.jpg&quot; rel=&quot;nofollow&quot; target=&quot;_NEW&quot;&gt;\nhttp://www.shotpix.com/images/76104868875018126299.jpg&lt;/a&gt;","torrent":{"xt":"urn:btih:b04e4e7cb0b03dba67db5c72e16fa250a028e5aa","amp;dn":"Kill.Em.All.2013.DVDRip.XviD.AC3-PTpOWeR","amp;tr":["udp%3A%2F%2Ftracker.openbittorrent.com%3A80","udp%3A%2F%2Fopen.demonii.com%3A1337","udp%3A%2F%2Ftracker.coppersurfer.tk%3A6969","udp%3A%2F%2Fexodus.desync.com%3A6969"],"infoHash":"b04e4e7cb0b03dba67db5c72e16fa250a028e5aa","infoHashBuffer":{"type":"Buffer","data":[176,78,78,124,176,176,61,186,103,219,92,114,225,111,162,80,160,40,229,170]},"announce":[],"urlList":[]}}